# xmcd
#
# Track frame offsets:
# 150
# 13550
# 30410
# 55452
# 73166
# 87057
# 102783
# 116834
# 134675
# 158535
# 173703
# 199039
# 215627
# 234663
# 255068
#
# Disc length: 3645 seconds
#
# Revision: 0
# Processed by: cddbd v1.5.1PL0 Copyright (c) Steve Scherf et al.
# Submitted via: Audion 3.0.2 (http://www.panic.com/audion/)
#
DISCID=c50e3b0f
DTITLE=Dr. Don's Double Dose - Conjure Bag
DYEAR=1900
DGENRE=
TTITLE0=Susie Q
TTITLE1=You Don't Know My Mind
TTITLE2=You Sure Can't Do
TTITLE3=It Ain't Gonna Worry My Mind
TTITLE4=You've Gotta Reap
TTITLE5=Back Room Boogie
TTITLE6=Beautiful City
TTITLE7=Hush
TTITLE8=Oh, Roberta
TTITLE9=Don't You Leave Me Here
TTITLE10=Saint James Infirmary
TTITLE11=That's A Rockin' Good Way
TTITLE12=Same Thing
TTITLE13=I Was So Wrong
TTITLE14=Keep Your Hands Off Her
EXTD=
EXTT0=
EXTT1=
EXTT2=
EXTT3=
EXTT4=
EXTT5=
EXTT6=
EXTT7=
EXTT8=
EXTT9=
EXTT10=
EXTT11=
EXTT12=
EXTT13=
EXTT14=
PLAYORDER=
